
<svg version="1.0" xmlns="http://www.w3.org/2000/svg"
 viewBox="0 0 500.000000 97.000000"
 preserveAspectRatio="xMidYMid meet">

<g transform="translate(0.000000,97.000000) scale(0.100000,-0.100000)"
fill="#ffffff" stroke="none">
<path d="M2468 853 c-12 -3 -16 -12 -14 -26 3 -12 5 -29 5 -37 1 -13 2 -13 11
0 8 11 9 8 4 -12 -5 -24 -3 -28 15 -28 18 0 21 6 21 38 0 44 -17 70 -42 65z"/>
<path d="M2150 830 c0 -14 7 -20 24 -20 21 0 24 -6 30 -52 3 -29 6 -121 6
-205 0 -112 3 -153 13 -156 10 -4 10 -6 0 -6 -22 -2 -14 -19 10 -24 12 -3 0
-5 -28 -4 -40 1 -51 -2 -53 -16 -3 -14 5 -17 47 -17 49 0 50 1 57 35 3 19 10
35 15 35 5 0 9 41 9 90 l0 90 54 0 c30 0 61 3 70 6 9 3 16 1 16 -6 0 -6 -4 -8
-10 -5 -5 3 -10 -1 -10 -10 0 -9 5 -13 11 -9 8 4 9 0 4 -15 -5 -17 -2 -21 14
-21 20 0 21 6 21 80 0 72 -2 80 -19 80 -22 0 -35 -28 -25 -54 5 -12 2 -15 -12
-9 -12 4 -15 3 -10 -5 5 -8 0 -12 -13 -12 -12 0 -21 5 -21 10 0 6 -17 10 -37
10 l-38 0 3 100 3 100 32 1 c18 1 35 1 39 1 3 -1 9 5 12 13 4 13 -12 15 -104
15 -103 0 -110 -1 -110 -20z m100 -341 c0 -18 -18 -9 -23 12 -4 16 -3 18 9 8
8 -6 14 -15 14 -20z"/>
<path d="M2396 841 c-4 -5 -2 -12 3 -15 5 -4 13 -1 17 5 4 8 9 7 16 -2 8 -11
9 -11 5 1 -4 18 -33 25 -41 11z"/>
<path d="M2782 833 c2 -11 14 -19 31 -21 26 -3 34 -22 28 -70 -2 -9 6 -12 21
-10 17 2 23 9 22 25 -1 13 3 20 7 17 5 -3 7 -9 4 -14 -3 -5 0 -12 6 -15 7 -5
10 2 7 21 -3 25 1 29 34 37 62 15 55 34 -15 40 -128 11 -149 10 -145 -10z"/>
<path d="M1809 829 c-11 -7 -11 -9 -1 -9 7 0 10 -4 7 -10 -3 -5 1 -10 10 -10
24 0 40 -21 42 -55 2 -30 32 -95 44 -95 16 0 17 15 2 32 -14 16 -15 21 -4 28
11 6 12 21 5 66 l-9 59 -41 1 c-23 1 -48 -2 -55 -7z"/>
<path d="M1656 813 c-3 -10 -2 -38 3 -63 5 -25 9 -36 10 -25 1 15 4 16 13 7 7
-7 20 -12 30 -12 14 0 18 8 18 35 0 30 3 35 23 35 28 0 37 7 31 24 -3 8 -27
14 -64 15 -48 1 -59 -2 -64 -16z"/>
<path d="M1488 809 c-10 -5 -18 -15 -18 -21 0 -7 5 -6 15 2 12 10 15 10 15 -4
0 -9 -6 -16 -14 -16 -10 0 -13 -18 -14 -70 -1 -68 0 -70 24 -70 18 0 24 6 24
23 1 18 5 67 9 120 1 4 15 7 32 7 19 0 28 4 23 11 -3 6 0 15 7 20 20 13 -82
11 -103 -2z"/>
<path d="M3414 805 c-9 -21 -2 -26 13 -10 8 9 9 16 3 20 -6 3 -13 -1 -16 -10z"/>
<path d="M3454 795 c0 -14 4 -25 8 -25 4 0 8 -9 8 -20 0 -11 4 -20 10 -20 5 0
25 9 45 20 20 11 47 20 60 20 33 0 33 26 0 34 -13 3 -43 2 -65 -3 -22 -5 -38
-5 -35 -1 4 6 -16 20 -29 20 -1 0 -2 -11 -2 -25z"/>
<path d="M1180 785 c-8 -2 -32 -6 -52 -10 -48 -7 -51 -32 -5 -37 29 -3 32 -7
35 -38 1 -19 5 -42 9 -50 6 -15 12 -84 12 -133 1 -27 24 -72 39 -72 4 0 6 -4
4 -8 -1 -5 2 -6 7 -3 5 4 8 14 7 24 -2 9 -9 67 -15 127 -7 61 -14 120 -17 133
-2 13 1 24 8 26 43 13 47 16 42 31 -6 14 -35 18 -74 10z"/>
<path d="M3860 761 c0 -12 9 -21 25 -25 14 -4 25 -12 25 -19 0 -6 -11 -95 -24
-197 -23 -170 -23 -186 -8 -194 14 -8 14 -10 -3 -17 -11 -4 -32 -8 -47 -8 -21
-1 -28 -6 -28 -20 0 -15 10 -20 53 -25 139 -17 159 -18 152 -7 -3 6 -2 11 4
11 5 0 14 -7 18 -15 6 -10 30 -15 82 -17 l73 -3 14 45 c8 25 14 50 14 56 0 18
-38 24 -44 7 -9 -21 -7 -25 6 -17 7 4 8 3 4 -5 -4 -6 -11 -9 -16 -6 -4 3 -15
-6 -23 -19 -15 -22 -20 -23 -64 -15 -58 11 -113 9 -113 -5 0 -6 -6 -1 -14 10
-12 17 -12 34 -1 115 9 70 10 96 1 102 -7 6 -4 7 6 3 10 -3 40 -8 68 -12 33
-4 50 -11 50 -21 0 -19 30 -29 41 -12 5 8 9 19 9 24 0 6 -5 3 -10 -5 -5 -8
-10 -10 -11 -5 0 6 -2 18 -4 28 -2 11 -1 16 2 13 9 -8 32 26 33 47 0 28 -37
21 -44 -9 -7 -26 -9 -26 -64 -20 -31 4 -57 8 -58 9 -1 2 23 192 25 192 1 0 16
0 34 0 22 0 32 5 32 15 0 11 -17 17 -60 22 -33 4 -77 10 -97 13 -33 4 -38 3
-38 -14z"/>
<path d="M846 735 c-16 -8 -24 -10 -20 -3 5 8 -3 9 -26 5 -18 -4 -36 -7 -41
-7 -23 0 -6 -29 20 -35 29 -6 41 -32 41 -91 0 -13 4 -24 9 -24 5 0 7 -8 4 -19
-2 -10 2 -74 11 -141 21 -158 21 -157 -9 -164 -14 -4 -25 -14 -25 -23 0 -14
10 -15 77 -9 85 8 93 11 93 32 0 9 -11 14 -34 14 -39 0 -37 -6 -57 170 -9 72
-17 109 -28 117 -12 9 -12 12 -3 13 18 0 12 51 -8 68 -8 8 -9 11 -2 7 6 -3 12
-1 12 5 0 13 48 -35 66 -66 6 -11 24 -28 41 -39 16 -11 28 -26 25 -33 -2 -7 4
-12 13 -12 9 0 14 -4 10 -9 -6 -10 30 -25 42 -18 5 3 13 -1 20 -8 10 -10 9
-14 -3 -19 -9 -3 -12 -1 -9 4 3 6 -1 10 -10 10 -17 0 -14 -11 13 -42 8 -10 19
-15 25 -11 5 3 7 2 4 -4 -4 -5 11 -30 32 -54 22 -24 47 -54 58 -67 15 -19 24
-22 46 -17 27 7 28 9 22 54 -8 58 -22 88 -46 94 -14 4 -18 0 -16 -15 1 -12 -8
-26 -23 -36 l-25 -16 20 22 c15 18 16 25 6 31 -7 5 -13 12 -14 17 -1 5 -9 9
-17 8 -9 -1 -21 5 -28 12 -7 8 -10 14 -6 14 3 0 1 7 -6 15 -11 13 -10 14 6 8
17 -6 17 -5 5 10 -7 9 -18 14 -24 10 -5 -3 -7 -1 -3 5 6 11 -10 26 -29 27 -5
0 -10 4 -10 8 0 5 -8 13 -17 18 -10 6 -18 17 -18 24 0 18 -16 20 -24 3 -3 -7
-3 -2 0 12 4 19 -5 37 -40 78 -73 85 -69 83 -100 67z m151 -181 c-3 -3 -12 -4
-19 -1 -8 3 -5 6 6 6 11 1 17 -2 13 -5z m241 -209 c-3 -3 -9 2 -12 12 -6 14
-5 15 5 6 7 -7 10 -15 7 -18z"/>
<path d="M4080 741 c0 -6 0 -14 0 -18 0 -5 3 -8 8 -9 49 -3 70 -17 76 -50 5
-24 12 -34 25 -34 16 0 19 8 20 55 0 53 -1 55 -27 55 -15 0 -44 3 -64 6 -25 5
-38 3 -38 -5z"/>
<path d="M3513 728 c1 -8 -7 -12 -23 -10 -20 2 -22 1 -10 -7 13 -9 13 -11 -2
-11 -13 0 -18 -8 -18 -30 0 -22 4 -28 15 -24 19 8 20 -12 1 -23 -8 -4 -17 -30
-20 -58 l-6 -50 15 33 c21 45 42 42 36 -5 -1 -7 3 -13 9 -13 5 0 10 6 11 13 0
6 2 21 5 32 2 11 6 53 9 93 4 59 2 72 -10 72 -8 0 -14 -6 -12 -12z m8 -81
c-10 -9 -11 -8 -5 6 3 10 9 15 12 12 3 -3 0 -11 -7 -18z m-26 -47 c3 -5 2 -10
-4 -10 -5 0 -13 5 -16 10 -3 6 -2 10 4 10 5 0 13 -4 16 -10z"/>
<path d="M2856 712 c-4 -7 -4 -12 1 -12 4 0 1 -5 -7 -10 -10 -6 -11 -10 -2
-10 6 0 12 -4 12 -10 0 -5 -6 -9 -12 -7 -9 1 -14 -14 -16 -47 -4 -65 3 -92 28
-99 11 -3 20 -11 20 -18 0 -10 -3 -10 -12 -1 -15 15 -38 16 -38 2 0 -5 7 -10
16 -10 8 0 12 -4 9 -10 -3 -5 1 -10 10 -10 11 0 15 -5 11 -16 -3 -8 -2 -13 3
-9 5 3 11 -1 14 -7 3 -7 6 16 6 52 1 36 4 94 6 130 4 81 -2 105 -20 90 -10 -8
-14 -8 -17 2 -3 9 -6 9 -12 0z"/>
<path d="M1666 691 c-8 -13 -3 -61 6 -61 4 0 5 -6 2 -14 -3 -8 0 -17 5 -21 6
-3 8 -12 4 -18 -5 -7 -8 -61 -8 -122 0 -102 -1 -110 -20 -113 -52 -8 -65 -14
-65 -28 0 -14 12 -15 88 -9 95 8 106 11 96 27 -4 7 -2 8 5 4 6 -4 9 -12 6 -17
-4 -5 4 -7 17 -5 13 3 31 5 41 5 9 1 17 8 17 17 0 13 -10 15 -55 12 -40 -2
-54 0 -51 9 3 7 -1 10 -12 7 -15 -5 -15 -4 -1 5 9 6 15 21 14 33 -1 13 -3 34
-4 47 0 13 -4 21 -8 18 -3 -4 -12 -2 -20 5 -11 9 -12 7 -7 -8 6 -15 4 -17 -6
-7 -15 14 -3 36 16 29 21 -8 25 9 18 65 -6 45 -9 50 -20 35 -7 -10 -15 -13
-18 -7 -4 5 2 16 13 23 21 15 24 89 4 96 -7 2 -13 -1 -13 -6 0 -5 -7 -13 -16
-16 -8 -3 -12 -2 -9 3 3 5 1 12 -4 15 -5 4 -12 2 -15 -3z"/>
<path d="M4490 674 c0 -11 5 -14 17 -10 10 4 14 4 10 0 -4 -4 0 -12 9 -19 14
-10 15 -19 4 -68 -6 -31 -9 -61 -6 -66 4 -5 2 -11 -2 -13 -5 -1 -19 -66 -33
-143 l-24 -140 -30 -5 c-58 -10 -36 -28 53 -44 107 -20 112 -20 112 -1 0 9
-12 18 -30 22 -30 5 -30 7 -25 52 12 109 40 174 60 141 4 -6 16 -10 28 -10 27
-1 52 -20 52 -40 0 -8 6 -14 13 -12 9 1 10 -6 6 -24 -6 -24 -5 -25 15 -14 12
6 27 9 34 6 7 -2 4 -5 -6 -5 -11 -1 -17 -7 -14 -13 2 -7 10 -12 16 -10 6 1 11
-2 11 -8 0 -13 -17 -13 -25 0 -9 15 -25 12 -25 -6 0 -8 4 -13 9 -10 4 3 6 -5
4 -18 -3 -12 2 -39 11 -59 16 -40 46 -50 46 -16 0 13 4 18 12 13 7 -5 9 -2 5
9 -3 9 -1 17 4 19 6 2 1 14 -11 28 -12 14 -17 26 -12 28 12 4 -7 72 -20 72 -5
0 -6 5 -3 10 3 6 0 10 -7 10 -24 0 -16 40 9 46 13 4 23 10 23 16 0 5 5 6 10 3
6 -3 10 3 10 14 0 12 -6 21 -13 21 -8 0 -14 7 -14 15 0 10 8 15 20 13 17 -3
20 3 20 32 0 21 -5 34 -12 33 -14 -4 -15 23 -1 32 6 3 10 -1 10 -9 0 -9 5 -16
10 -16 6 0 10 -7 8 -16 -2 -10 2 -19 9 -21 9 -3 11 11 9 48 -2 43 -7 56 -31
75 -38 30 -114 52 -125 35 -5 -10 -8 -9 -13 2 -3 8 -22 14 -51 15 -25 1 -57 7
-71 12 -39 15 -65 12 -65 -6z m253 -76 c34 -34 38 -42 36 -83 -2 -25 -6 -45
-10 -45 -4 0 -10 -11 -13 -24 -8 -34 -58 -49 -119 -37 -27 5 -50 11 -53 14 -7
6 28 201 37 207 4 3 24 5 46 5 31 0 45 -7 76 -37z m-173 -18 c0 -5 -5 -10 -11
-10 -5 0 -7 5 -4 10 3 6 8 10 11 10 2 0 4 -4 4 -10z m145 -221 c-6 -29 -15
-37 -15 -12 0 17 8 33 16 33 2 0 1 -10 -1 -21z m50 -149 c3 -6 -1 -7 -9 -4
-18 7 -21 14 -7 14 6 0 13 -4 16 -10z"/>
<path d="M260 639 c-6 -11 -9 -25 -6 -32 3 -9 5 -8 5 1 2 24 40 -7 56 -43 7
-19 19 -35 25 -35 6 0 9 -4 6 -8 -2 -4 -1 -14 5 -22 7 -13 9 -12 9 2 0 9 4 19
9 23 6 3 8 -12 7 -34 -2 -27 1 -42 11 -45 8 -3 12 -10 9 -14 -3 -5 4 -27 15
-48 l20 -39 -33 -14 c-18 -7 -49 -14 -68 -15 -25 -1 -34 -5 -32 -15 3 -12 1
-12 -15 0 -10 8 -24 21 -31 29 -12 13 -13 13 -6 0 5 -10 1 -9 -14 4 -21 18
-21 18 -28 -10 -5 -17 -3 -29 4 -32 6 -2 8 -10 5 -18 -3 -8 1 -14 8 -15 8 0 3
-5 -10 -10 -18 -7 -22 -14 -17 -34 4 -15 2 -25 -5 -25 -6 0 -9 -6 -6 -12 2 -7
-3 -21 -11 -31 -22 -24 -3 -42 35 -32 15 4 41 8 58 9 20 1 31 7 33 18 3 14 -3
17 -22 16 -28 -2 -34 -13 -13 -21 8 -4 7 -6 -3 -6 -17 -1 -40 17 -40 32 0 4 4
5 10 2 5 -3 9 9 8 29 -1 23 -7 37 -17 39 -12 4 -12 5 3 6 14 1 17 7 14 25 -4
19 -1 23 18 23 13 0 21 -3 18 -8 -5 -9 15 -6 109 12 70 13 71 13 95 -36 12
-25 22 -47 22 -49 0 -2 -11 -7 -25 -10 -31 -8 -33 -36 -2 -35 12 0 51 6 87 13
47 9 66 17 68 29 3 12 -3 17 -20 17 -19 0 -38 26 -118 165 -52 91 -103 181
-113 200 -18 38 -43 46 -50 18 -4 -17 -5 -17 -6 0 0 10 5 20 13 23 26 10 5 34
-30 34 -23 0 -37 -6 -44 -21z m170 -207 c0 -13 -12 -22 -22 -16 -10 6 -1 24
13 24 5 0 9 -4 9 -8z"/>
<path d="M260 566 c0 -9 -5 -16 -11 -16 -5 0 -9 -8 -7 -17 1 -10 0 -22 -3 -28
-4 -5 -9 -22 -13 -37 -5 -23 -3 -28 11 -28 17 -1 17 -1 1 -14 -18 -13 -25 -32
-9 -22 5 4 11 0 14 -6 9 -24 25 6 32 60 5 40 4 52 -7 52 -10 0 -10 2 -1 8 17
11 21 54 6 59 -7 3 -13 -2 -13 -11z"/>
<path d="M3474 538 c-4 -13 -11 -26 -17 -30 -13 -8 11 -33 41 -42 19 -6 22 -4
22 18 0 28 -15 43 -24 24 -3 -7 -5 2 -3 20 4 37 -8 43 -19 10z"/>
<path d="M3106 435 c-10 -31 -12 -54 -6 -69 11 -30 39 -29 45 1 3 12 7 34 10
47 3 14 0 26 -8 29 -9 4 -9 6 1 6 20 2 14 31 -7 31 -14 0 -23 -13 -35 -45z"/>
<path d="M2500 424 c-18 -41 -22 -44 -58 -44 -22 0 -66 -3 -100 -6 -50 -6 -60
-10 -59 -25 1 -16 12 -18 92 -18 132 0 164 6 169 32 17 84 17 94 -4 100 -18 5
-25 -2 -40 -39z"/>
<path d="M2842 444 c-7 -7 -15 -27 -18 -44 -4 -16 -13 -30 -20 -30 -8 0 -14
-5 -14 -11 0 -5 6 -7 13 -3 8 5 7 2 -2 -9 -13 -16 -9 -17 50 -16 35 1 72 -2
83 -6 11 -5 26 -3 37 3 13 8 19 8 21 0 3 -7 10 -5 20 6 12 12 18 13 21 3 2 -6
7 -9 11 -6 17 15 -28 40 -68 38 -66 -3 -73 0 -80 26 -4 14 -11 25 -17 25 -5 0
-13 9 -17 19 -6 16 -9 17 -20 5z"/>
<path d="M3443 439 c-2 -27 14 -33 28 -10 11 17 14 17 28 4 11 -11 16 -12 19
-4 6 17 -2 22 -40 26 -27 2 -34 -1 -35 -16z"/>
<path d="M3480 405 c-1 -5 -2 -14 -1 -19 1 -5 -5 -4 -14 4 -13 11 -17 8 -26
-19 -9 -25 -16 -31 -40 -31 -22 0 -29 -5 -29 -19 0 -15 11 -19 61 -25 99 -10
139 -8 139 8 0 7 -15 17 -32 23 -30 8 -33 12 -30 42 2 20 0 31 -6 27 -6 -3
-13 0 -15 6 -3 7 -6 9 -7 3z m10 -49 c0 -8 -4 -18 -10 -21 -5 -3 -10 3 -10 14
0 12 5 21 10 21 6 0 10 -6 10 -14z"/>
<path d="M217 374 c-3 -3 0 -12 6 -19 13 -13 37 -9 37 7 0 5 -5 6 -11 2 -6 -3
-14 -1 -18 5 -4 6 -10 9 -14 5z"/>
<path d="M3066 354 c-10 -27 -7 -30 31 -31 24 -1 32 2 22 8 -8 5 -22 9 -33 9
-15 0 -16 3 -6 15 7 9 8 15 2 15 -5 0 -13 -7 -16 -16z"/>
<path d="M4810 119 c-13 -9 -12 -10 3 -5 9 3 17 1 17 -4 0 -16 17 -12 24 5 6
18 -21 20 -44 4z"/>
</g>
</svg>
